HIERARCHY
ROOT root
{
	OFFSET 0.000000 0.000000 0.000000
	CHANNELS 6 Xposition Yposition Zposition Zrotation Yrotation Xrotation
	JOINT lhip
	{
		OFFSET 0.058581 -0.082280 -0.017664
		CHANNELS 3 Zrotation Yrotation Xrotation
		JOINT lknee
		{
			OFFSET 0.043451 -0.386469 0.008037
			CHANNELS 3 Zrotation Yrotation Xrotation
			JOINT lankle
			{
				OFFSET -0.014790 -0.426874 -0.037428
				CHANNELS 3 Zrotation Yrotation Xrotation
				JOINT ltoe
				{
					OFFSET 0.041054 -0.060286 0.122042
					CHANNELS 3 Zrotation Yrotation Xrotation
					End Site
					{
						OFFSET 0.000000 0.000000 0.000000
					}
				}
			}
		}
	}
	JOINT rhip
	{
		OFFSET -0.060310 -0.090513 -0.013543
		CHANNELS 3 Zrotation Yrotation Xrotation
		JOINT rknee
		{
			OFFSET -0.043257 -0.383688 -0.004843
			CHANNELS 3 Zrotation Yrotation Xrotation
			JOINT rankle
			{
				OFFSET 0.019056 -0.420046 -0.034562
				CHANNELS 3 Zrotation Yrotation Xrotation
				JOINT rtoe
				{
					OFFSET -0.034840 -0.062106 0.130323
					CHANNELS 3 Zrotation Yrotation Xrotation
					End Site
					{
						OFFSET 0.000000 0.000000 0.000000
					}
				}
			}
		}
	}
	JOINT lowerback
	{
		OFFSET 0.004439 0.124404 -0.038385
		CHANNELS 3 Zrotation Yrotation Xrotation
		JOINT upperback
		{
			OFFSET 0.004488 0.137956 0.026820
			CHANNELS 3 Zrotation Yrotation Xrotation
			JOINT chest
			{
				OFFSET -0.002265 0.056032 0.002855
				CHANNELS 3 Zrotation Yrotation Xrotation
				JOINT lowerneck
				{
					OFFSET -0.013390 0.211636 -0.033468
					CHANNELS 3 Zrotation Yrotation Xrotation
					JOINT upperneck
					{
						OFFSET 0.010113 0.088937 0.050410
						CHANNELS 3 Zrotation Yrotation Xrotation
						End Site
						{
							OFFSET 0.000000 0.000000 0.000000
						}
					}
				}
				JOINT lclavicle
				{
					OFFSET 0.071702 0.114000 -0.018898
					CHANNELS 3 Zrotation Yrotation Xrotation
					JOINT lshoulder
					{
						OFFSET 0.122921 0.045205 -0.019046
						CHANNELS 3 Zrotation Yrotation Xrotation
						JOINT lelbow
						{
							OFFSET 0.255332 -0.015649 -0.022946
							CHANNELS 3 Zrotation Yrotation Xrotation
							JOINT lwrist
							{
								OFFSET 0.265709 0.012698 -0.007375
								CHANNELS 3 Zrotation Yrotation Xrotation
								End Site
								{
									OFFSET 0.000000 0.000000 0.000000
								}
							}
						}
					}
				}
				JOINT rclavicle
				{
					OFFSET -0.082954 0.112472 -0.023707
					CHANNELS 3 Zrotation Yrotation Xrotation
					JOINT rshoulder
					{
						OFFSET -0.113228 0.046853 -0.008472
						CHANNELS 3 Zrotation Yrotation Xrotation
						JOINT relbow
						{
							OFFSET -0.260127 -0.014369 -0.031269
							CHANNELS 3 Zrotation Yrotation Xrotation
							JOINT rwrist
							{
								OFFSET -0.269108 0.006794 -0.006027
								CHANNELS 3 Zrotation Yrotation Xrotation
								End Site
								{
									OFFSET 0.000000 0.000000 0.000000
								}
							}
						}
					}
				}
			}
		}
	}
}
MOTION
Frames: 16
Frame Time: 0.033333
-0.672514 1.224823 1.181563 -179.310034 1.297062 80.652237 -0.809515 -0.653321 0.927535 -3.919848 -12.283833 5.107057 0.412762 2.575636 -2.881786 0.000000 -0.000000 0.000000 0.451226 -7.205621 -3.158030 -1.223969 -16.446889 26.083856 1.925996 -13.686567 -13.908422 0.000000 -0.000000 0.000000 -0.324316 0.720454 17.234673 3.011331 -3.366955 -0.820666 1.469759 -1.965898 1.023297 1.191843 2.905354 2.589889 -0.108325 -2.827989 15.454885 -26.450090 -2.851328 2.865368 -53.366063 -12.045955 9.903832 14.728930 -36.923951 -2.875442 5.881455 -5.922190 -13.920576 27.987208 3.745986 2.782024 56.978638 3.114610 12.219338 -20.438598 28.111152 -12.315053 1.531028 5.847439 -9.883635 
-0.670706 1.231931 1.181555 179.438364 1.014215 80.551725 -0.908345 -0.090464 1.677536 -3.704345 -11.840419 4.957480 0.340573 2.608121 -3.364313 0.000000 -0.000000 0.000000 0.452697 -8.832280 -1.819338 -1.514721 -18.314203 24.002722 1.056062 -14.697261 -12.811466 0.000000 -0.000000 0.000000 -0.035631 1.159099 17.102348 2.490809 -3.009509 -0.947213 1.353372 -1.652886 0.929095 0.993462 2.494795 2.750695 0.054301 -2.743005 15.868789 -26.674253 -2.942377 2.751922 -53.709622 -12.353142 9.631764 15.000821 -36.614886 -2.529578 5.293385 -5.814729 -14.020870 27.730545 3.836242 2.829399 57.085199 2.991129 11.959001 -20.390397 28.410620 -11.693553 2.116653 5.832387 -9.741763 
-0.667271 1.238346 1.181681 177.633278 1.014479 80.687616 -0.586619 0.527773 2.114364 -3.502279 -10.803009 4.821211 0.294576 3.052305 -4.000585 0.000000 -0.000000 0.000000 0.865476 -9.618107 -0.144802 -0.905076 -18.529069 20.800260 1.003134 -14.018205 -12.888557 0.000000 -0.000000 0.000000 0.598841 1.500893 16.696816 1.963581 -2.608475 -1.048970 0.983162 -1.203851 0.836576 0.923371 2.237688 3.017842 0.200035 -2.721116 16.121244 -27.097280 -2.739318 2.440454 -53.744230 -12.101352 9.437202 14.788980 -36.409800 -2.530991 4.682986 -5.860090 -13.534147 27.894934 3.985861 3.135538 56.967965 3.057900 11.742566 -20.294877 28.524377 -11.053245 2.588161 5.800077 -9.060883 
-0.663281 1.244162 1.181780 175.241861 0.554604 80.774078 -0.782335 0.929738 2.422611 -3.288976 -9.575300 5.151816 0.478243 3.881936 -4.873391 0.000000 -0.000000 0.000000 0.334614 -10.131483 1.536400 0.056005 -17.030997 18.242415 1.469202 -12.061105 -13.232095 0.000000 -0.000000 0.000000 0.614406 2.406048 16.266735 1.456921 -2.050219 -0.917210 0.846492 -0.925838 0.713379 0.886664 2.296135 3.215368 0.559811 -2.752539 16.370265 -27.445554 -2.603310 2.319056 -54.220781 -11.732888 9.468090 14.882908 -35.761370 -2.776157 4.285136 -5.973740 -13.055207 27.850439 3.777275 3.222946 57.049458 3.075318 11.525273 -20.126037 28.870808 -10.590744 3.155802 5.914057 -8.954404 
-0.659023 1.248227 1.182190 172.416337 0.650049 81.020627 -0.547713 0.895861 1.991757 -3.062785 -8.181628 6.496578 0.837093 5.334613 -5.894023 0.000000 -0.000000 0.000000 1.208342 -8.934377 2.694621 0.292902 -14.592224 15.994943 1.442053 -11.256426 -13.203897 0.000000 -0.000000 0.000000 1.081505 2.819342 15.620694 1.136224 -1.494511 -0.639433 0.469575 -0.363771 0.705660 1.227753 2.193667 3.161698 0.699465 -2.950692 16.709100 -27.737283 -2.227390 2.266499 -54.845600 -11.365855 9.438199 14.985664 -34.883844 -3.035069 4.111454 -5.902233 -12.485405 27.591741 3.883560 3.275656 57.327510 3.184833 11.761750 -19.960556 28.913942 -9.996590 3.056371 5.780879 -9.194585 
-0.654166 1.252141 1.183166 169.597021 1.152941 80.788837 0.038506 0.995559 1.338547 -2.797104 -6.796147 9.327293 1.223099 6.752120 -7.310784 0.000000 -0.000000 0.000000 1.979621 -8.427208 3.671267 0.790948 -13.184131 14.943523 1.140334 -10.120685 -12.985553 0.000000 -0.000000 0.000000 1.751312 3.000057 15.679901 0.986960 -1.055310 -0.727160 0.362823 -0.303777 0.970059 1.464066 1.849644 2.924050 0.627164 -3.016466 16.919505 -27.874330 -1.777341 2.097243 -55.607354 -10.465261 9.402379 14.926037 -33.979680 -2.669284 3.139287 -5.675917 -12.307728 27.446365 4.087449 3.413911 57.276984 3.790138 11.749686 -19.739111 28.524080 -9.428262 2.958726 5.980332 -9.058263 
-0.649476 1.254529 1.183509 166.568933 1.464112 80.801213 0.393641 0.635881 -0.388878 -2.593776 -5.163707 13.539064 1.563744 8.209328 -8.798022 0.000000 -0.000000 0.000000 2.757394 -7.593090 4.349289 1.221534 -11.594917 13.837714 0.681273 -9.384845 -12.831908 0.000000 -0.000000 0.000000 1.981138 3.195624 15.480911 1.000253 -0.848563 -0.703782 0.283877 -0.267174 1.045539 1.747978 1.153428 3.303010 0.795218 -2.764355 16.889277 -28.192875 -1.378216 2.230393 -56.156321 -9.614478 9.166676 14.972722 -32.523970 -2.268053 3.001207 -5.429145 -11.238898 27.450715 4.282029 3.658355 57.010058 4.203499 11.778203 -19.205484 28.868662 -8.803076 2.302838 5.800567 -9.308408 
-0.645017 1.257171 1.182548 163.260910 1.847541 80.336965 0.867232 0.524784 -2.079222 -2.116290 -4.194623 18.691455 1.159589 9.339817 -9.703014 0.000000 -0.000000 0.000000 3.398193 -7.148890 5.401868 1.432262 -9.706222 13.001905 0.420996 -8.236961 -12.595589 0.000000 -0.000000 0.000000 2.404785 3.460388 15.876329 1.099648 -0.940646 -0.513921 0.148785 -0.142911 1.127224 1.944264 0.807355 3.124720 0.984396 -3.214309 17.391712 -28.580571 -1.368136 2.381884 -56.302630 -8.695127 8.824054 14.166045 -31.026789 -2.134707 2.526090 -5.113737 -10.391355 27.483780 4.640631 3.513542 56.797909 4.476950 11.664345 -19.245156 29.174392 -8.809779 2.411496 6.102674 -9.537751 
-0.640395 1.259984 1.181572 159.894748 2.092406 79.668577 1.357018 0.116461 -3.919417 -1.747082 -3.849906 24.627190 0.137543 9.937986 -9.414288 0.000000 -0.000000 0.000000 3.581674 -6.917241 6.557351 2.001528 -7.869883 12.534521 0.324077 -7.063385 -12.368315 0.000000 -0.000000 0.000000 2.415175 3.747906 16.453354 1.363065 -1.235901 -0.285034 0.156131 0.059421 1.341016 2.371361 0.387355 2.959290 1.169492 -4.023014 17.799566 -28.968802 -1.557487 2.265227 -56.562353 -7.991344 8.820062 13.384198 -28.507041 -0.931264 2.159175 -5.218409 -9.342485 27.418719 4.888111 3.372219 56.405223 4.936698 11.418671 -18.608031 29.541611 -8.487230 2.193034 6.360739 -10.842635 
-0.636211 1.262173 1.181935 156.108449 2.049661 78.857766 1.709274 -0.628135 -5.417966 -1.738074 -4.047617 30.129027 -1.515212 10.528510 -8.113170 0.000000 -0.000000 0.000000 3.773351 -6.477484 7.554392 2.079045 -5.587042 12.391723 0.108234 -6.339121 -12.394866 0.000000 -0.000000 0.000000 2.043952 4.236511 17.233018 1.568369 -1.494354 -0.293573 0.275331 0.015619 1.535089 2.695528 -0.124926 3.831013 1.442628 -4.856695 17.943421 -28.914420 -1.481906 2.057414 -57.079533 -7.321201 8.970215 11.821023 -25.674664 0.716318 3.737218 -4.585538 -9.571717 27.194216 4.811784 3.112218 56.013337 5.708521 11.672956 -16.636304 29.510749 -5.954100 -0.941612 5.997003 -11.075882 
-0.633258 1.264078 1.183063 151.828122 2.002634 78.292789 2.278647 -1.657999 -6.686873 -2.219506 -4.569852 34.578902 -2.471173 10.331863 -6.107568 0.000000 -0.000000 0.000000 4.051465 -5.633977 8.118938 2.049672 -3.600394 12.356260 -0.225995 -5.437345 -12.236858 0.000000 -0.000000 0.000000 2.106364 4.719394 18.183276 1.701699 -1.328934 -0.515946 0.211653 0.109381 1.249462 2.693865 -0.303929 4.234233 1.478850 -5.974917 19.113777 -29.323974 -1.640890 2.234474 -57.524867 -6.322698 9.047154 11.141684 -23.319440 1.274159 2.917250 -4.115999 -9.497103 27.323510 4.842434 3.171714 56.508539 5.542816 11.300378 -18.281604 29.380040 -7.117429 -0.167002 5.850467 -11.502575 
-0.631977 1.267283 1.183668 147.508290 1.931275 78.320003 2.713344 -2.986002 -7.851629 -3.165262 -6.200065 37.684969 -2.387065 9.503750 -4.020363 0.000000 -0.000000 0.000000 4.142435 -4.546866 8.017966 2.189397 -1.628332 12.533431 -0.639032 -4.400071 -11.916675 0.000000 -0.000000 0.000000 1.847473 5.018404 18.234256 1.780087 -1.233100 -0.338673 0.187760 0.573002 0.631943 2.733745 -1.314103 5.381247 1.875297 -6.432060 19.273425 -29.431126 -1.869834 2.692486 -58.727900 -5.146184 9.159075 11.787810 -21.380872 1.434203 1.643230 -3.358436 -7.966833 27.610261 7.139064 4.536356 56.370590 3.676154 11.211525 -20.449279 29.523104 -9.496774 -0.733155 5.626182 -13.238471 
-0.630791 1.270636 1.184575 143.018938 1.545425 78.425690 2.772674 -3.969469 -8.183674 -5.000252 -9.341019 39.231511 -1.793041 7.476694 -4.120765 0.000000 -0.000000 0.000000 3.701747 -3.949199 7.624285 2.369304 0.814206 13.113220 -0.079884 -3.236645 -11.959048 0.000000 -0.000000 0.000000 1.596303 5.402854 18.001461 1.754273 -0.973437 -0.556925 -0.071456 0.320234 0.823770 3.242928 -1.509004 5.633892 1.499380 -6.740547 19.778139 -29.609823 -0.584987 2.529285 -59.342365 -4.984978 9.562160 11.191551 -19.656855 3.086296 0.488386 -3.259276 -8.429337 27.753066 4.601790 3.473461 55.630834 5.020408 11.186849 -17.935506 29.548348 -6.038547 1.160923 5.419090 -13.527128 
-0.630495 1.274551 1.185931 138.236277 1.138070 78.841702 2.803065 -4.984584 -7.830903 -7.476878 -13.425769 38.742091 -1.777610 5.446182 -6.346313 0.000000 -0.000000 0.000000 3.256881 -2.968527 6.970811 2.494609 3.205898 13.511814 0.814401 -2.039942 -11.570417 0.000000 -0.000000 0.000000 1.538891 5.707563 17.441830 1.481640 -0.492011 -0.740903 -0.397120 0.285071 0.871145 3.315567 -1.833039 5.838375 1.259441 -7.601801 19.743381 -29.930521 0.271674 2.606047 -59.727993 -4.370673 9.808634 11.051683 -19.084495 2.820389 2.272403 -2.664451 -8.531399 27.945188 4.172800 3.562080 55.219574 5.182518 11.164846 -17.289702 28.715001 -5.219256 0.337793 4.990731 -12.998746 
-0.630885 1.279468 1.187100 133.812554 0.777609 79.243018 2.522739 -6.306887 -6.617587 -9.102476 -18.018007 36.417778 -2.244800 3.494440 -9.520166 0.000000 -0.000000 0.000000 2.736338 -1.889646 6.202874 2.707366 5.144259 14.205326 1.958469 -0.676688 -11.501302 0.000000 -0.000000 0.000000 1.562197 5.693857 17.103028 1.177822 -0.080857 -0.937072 -0.699655 0.414360 0.900069 3.646500 -1.752602 5.764429 1.053607 -7.743801 19.362328 -30.062687 1.107552 2.312118 -60.565830 -4.310443 10.172299 11.472332 -17.765316 2.829866 2.825579 -3.158111 -9.091829 27.617740 3.627759 3.056082 55.448133 4.825167 11.370101 -17.249407 27.897919 -4.979745 0.001666 5.324972 -12.954991 
-0.631512 1.284712 1.187772 129.409637 0.371791 79.723474 2.050373 -7.779000 -4.710445 -9.664946 -22.860470 32.269426 -2.624221 1.916264 -12.186034 0.000000 -0.000000 0.000000 2.220034 -0.790674 5.350637 2.855158 7.220287 14.843833 2.995482 0.353726 -11.310810 0.000000 -0.000000 0.000000 1.498964 5.631921 16.443550 0.857618 0.251544 -0.626176 -0.977161 0.513058 0.749837 3.675426 -1.343310 5.970936 1.141338 -7.943073 18.348840 -30.158612 1.504170 2.306713 -60.614033 -3.934819 10.756537 11.436854 -18.125532 2.336247 2.722276 -3.050410 -9.403384 27.571373 3.543886 2.982960 55.101691 4.670551 11.411191 -17.256135 27.136575 -5.834135 0.621022 4.647454 -13.851401 
